<svg xmlns="http://www.w3.org/2000/svg" xmlns:xlink="http://www.w3.org/1999/xlink" contentStyleType="text/css" height="585px" preserveAspectRatio="none" style="width:577px;height:585px;background:#FFFFFF;" version="1.1" viewBox="0 0 577 585" width="577px" zoomAndPan="magnify"><defs/><g><!--class Patient--><g id="elem_Patient"><rect codeLine="3" fill="#F1F1F1" height="80.9766" id="Patient" rx="2.5" ry="2.5" style="stroke:#181818;stroke-width:0.5;" width="157.5508" x="121" y="7"/><ellipse cx="172.2866" cy="23" fill="#ADD1B2" rx="11" ry="11" style="stroke:#181818;stroke-width:1.0;"/><path d="M174.7598,29.1431 Q174.1787,29.4419 173.5396,29.5913 Q172.9004,29.7407 172.1948,29.7407 Q169.688,29.7407 168.3682,28.0889 Q167.0483,26.437 167.0483,23.3159 Q167.0483,20.1865 168.3682,18.5347 Q169.688,16.8828 172.1948,16.8828 Q172.9004,16.8828 173.5479,17.0322 Q174.1953,17.1816 174.7598,17.4805 L174.7598,20.2031 Q174.1289,19.6221 173.5354,19.3523 Q172.9419,19.0825 172.311,19.0825 Q170.9663,19.0825 170.2815,20.1492 Q169.5967,21.2158 169.5967,23.3159 Q169.5967,25.4077 170.2815,26.4744 Q170.9663,27.541 172.311,27.541 Q172.9419,27.541 173.5354,27.2712 Q174.1289,27.0015 174.7598,26.4204 Z " fill="#000000"/><text fill="#000000" font-family="sans-serif" font-size="14" lengthAdjust="spacing" textLength="46.4775" x="192.7866" y="28.291">Patient</text><line style="stroke:#181818;stroke-width:0.5;" x1="122" x2="277.5508" y1="39" y2="39"/><ellipse cx="132" cy="52.7441" fill="none" rx="3" ry="3" style="stroke:#038048;stroke-width:1.0;"/><text fill="#000000" font-family="sans-serif" font-size="14" lengthAdjust="spacing" textLength="131.5508" x="141" y="56.5352">identifier: Identifier</text><text fill="#000000" font-family="sans-serif" font-size="14" lengthAdjust="spacing" textLength="13.2891" x="141" y="73.0234">...</text><line style="stroke:#181818;stroke-width:0.5;" x1="122" x2="277.5508" y1="79.9766" y2="79.9766"/></g><!--class RelatedPerson--><g id="elem_RelatedPerson"><rect codeLine="8" fill="#F1F1F1" height="80.9766" id="RelatedPerson" rx="2.5" ry="2.5" style="stroke:#181818;stroke-width:0.5;" width="157.5508" x="220" y="497.41"/><ellipse cx="248.3115" cy="513.41" fill="#ADD1B2" rx="11" ry="11" style="stroke:#181818;stroke-width:1.0;"/><path d="M250.7846,519.5531 Q250.2036,519.8519 249.5644,520.0013 Q248.9252,520.1507 248.2197,520.1507 Q245.7128,520.1507 244.393,518.4989 Q243.0732,516.847 243.0732,513.7259 Q243.0732,510.5965 244.393,508.9447 Q245.7128,507.2928 248.2197,507.2928 Q248.9252,507.2928 249.5727,507.4422 Q250.2202,507.5916 250.7846,507.8905 L250.7846,510.6131 Q250.1538,510.0321 249.5603,509.7623 Q248.9667,509.4925 248.3359,509.4925 Q246.9912,509.4925 246.3063,510.5592 Q245.6215,511.6258 245.6215,513.7259 Q245.6215,515.8177 246.3063,516.8844 Q246.9912,517.951 248.3359,517.951 Q248.9667,517.951 249.5603,517.6812 Q250.1538,517.4115 250.7846,516.8304 Z " fill="#000000"/><text fill="#000000" font-family="sans-serif" font-size="14" lengthAdjust="spacing" textLength="95.9697" x="265.2696" y="518.701">RelatedPerson</text><line style="stroke:#181818;stroke-width:0.5;" x1="221" x2="376.5508" y1="529.41" y2="529.41"/><ellipse cx="231" cy="543.1541" fill="none" rx="3" ry="3" style="stroke:#038048;stroke-width:1.0;"/><text fill="#000000" font-family="sans-serif" font-size="14" lengthAdjust="spacing" textLength="131.5508" x="240" y="546.9452">identifier: Identifier</text><text fill="#000000" font-family="sans-serif" font-size="14" lengthAdjust="spacing" textLength="13.2891" x="240" y="563.4334">...</text><line style="stroke:#181818;stroke-width:0.5;" x1="221" x2="376.5508" y1="570.3866" y2="570.3866"/></g><!--class Practitioner--><g id="elem_Practitioner"><rect codeLine="13" fill="#F1F1F1" height="80.9766" id="Practitioner" rx="2.5" ry="2.5" style="stroke:#181818;stroke-width:0.5;" width="157.5508" x="413" y="497.41"/><ellipse cx="449.5095" cy="513.41" fill="#ADD1B2" rx="11" ry="11" style="stroke:#181818;stroke-width:1.0;"/><path d="M451.9826,519.5531 Q451.4016,519.8519 450.7624,520.0013 Q450.1232,520.1507 449.4177,520.1507 Q446.9108,520.1507 445.591,518.4989 Q444.2712,516.847 444.2712,513.7259 Q444.2712,510.5965 445.591,508.9447 Q446.9108,507.2928 449.4177,507.2928 Q450.1232,507.2928 450.7707,507.4422 Q451.4182,507.5916 451.9826,507.8905 L451.9826,510.6131 Q451.3518,510.0321 450.7583,509.7623 Q450.1647,509.4925 449.5339,509.4925 Q448.1892,509.4925 447.5043,510.5592 Q446.8195,511.6258 446.8195,513.7259 Q446.8195,515.8177 447.5043,516.8844 Q448.1892,517.951 449.5339,517.951 Q450.1647,517.951 450.7583,517.6812 Q451.3518,517.4115 451.9826,516.8304 Z " fill="#000000"/><text fill="#000000" font-family="sans-serif" font-size="14" lengthAdjust="spacing" textLength="77.752" x="468.2894" y="518.701">Practitioner</text><line style="stroke:#181818;stroke-width:0.5;" x1="414" x2="569.5508" y1="529.41" y2="529.41"/><ellipse cx="424" cy="543.1541" fill="none" rx="3" ry="3" style="stroke:#038048;stroke-width:1.0;"/><text fill="#000000" font-family="sans-serif" font-size="14" lengthAdjust="spacing" textLength="131.5508" x="433" y="546.9452">identifier: Identifier</text><text fill="#000000" font-family="sans-serif" font-size="14" lengthAdjust="spacing" textLength="13.2891" x="433" y="563.4334">...</text><line style="stroke:#181818;stroke-width:0.5;" x1="414" x2="569.5508" y1="570.3866" y2="570.3866"/></g><!--class Organization--><g id="elem_Organization"><rect codeLine="18" fill="#F1F1F1" height="80.9766" id="Organization" rx="2.5" ry="2.5" style="stroke:#181818;stroke-width:0.5;" width="157.5508" x="7" y="497.41"/><ellipse cx="38.8398" cy="513.41" fill="#ADD1B2" rx="11" ry="11" style="stroke:#181818;stroke-width:1.0;"/><path d="M41.313,519.5531 Q40.7319,519.8519 40.0928,520.0013 Q39.4536,520.1507 38.748,520.1507 Q36.2412,520.1507 34.9214,518.4989 Q33.6016,516.847 33.6016,513.7259 Q33.6016,510.5965 34.9214,508.9447 Q36.2412,507.2928 38.748,507.2928 Q39.4536,507.2928 40.1011,507.4422 Q40.7485,507.5916 41.313,507.8905 L41.313,510.6131 Q40.6821,510.0321 40.0886,509.7623 Q39.4951,509.4925 38.8643,509.4925 Q37.5195,509.4925 36.8347,510.5592 Q36.1499,511.6258 36.1499,513.7259 Q36.1499,515.8177 36.8347,516.8844 Q37.5195,517.951 38.8643,517.951 Q39.4951,517.951 40.0886,517.6812 Q40.6821,517.4115 41.313,516.8304 Z " fill="#000000"/><text fill="#000000" font-family="sans-serif" font-size="14" lengthAdjust="spacing" textLength="88.1289" x="56.582" y="518.701">Organization</text><line style="stroke:#181818;stroke-width:0.5;" x1="8" x2="163.5508" y1="529.41" y2="529.41"/><ellipse cx="18" cy="543.1541" fill="none" rx="3" ry="3" style="stroke:#038048;stroke-width:1.0;"/><text fill="#000000" font-family="sans-serif" font-size="14" lengthAdjust="spacing" textLength="131.5508" x="27" y="546.9452">identifier: Identifier</text><text fill="#000000" font-family="sans-serif" font-size="14" lengthAdjust="spacing" textLength="13.2891" x="27" y="563.4334">...</text><line style="stroke:#181818;stroke-width:0.5;" x1="8" x2="163.5508" y1="570.3866" y2="570.3866"/></g><!--class CareTeam--><g id="elem_CareTeam"><rect codeLine="24" fill="#F1F1F1" height="80.9766" id="CareTeam" rx="2.5" ry="2.5" style="stroke:#181818;stroke-width:0.5;" width="163.3682" x="118.09" y="164.97"/><ellipse cx="161.4255" cy="180.97" fill="#ADD1B2" rx="11" ry="11" style="stroke:#181818;stroke-width:1.0;"/><path d="M163.8986,187.1131 Q163.3176,187.4119 162.6784,187.5613 Q162.0393,187.7107 161.3337,187.7107 Q158.8269,187.7107 157.507,186.0589 Q156.1872,184.407 156.1872,181.2859 Q156.1872,178.1565 157.507,176.5047 Q158.8269,174.8528 161.3337,174.8528 Q162.0393,174.8528 162.6867,175.0022 Q163.3342,175.1516 163.8986,175.4505 L163.8986,178.1731 Q163.2678,177.5921 162.6743,177.3223 Q162.0808,177.0525 161.4499,177.0525 Q160.1052,177.0525 159.4204,178.1192 Q158.7356,179.1858 158.7356,181.2859 Q158.7356,183.3777 159.4204,184.4444 Q160.1052,185.511 161.4499,185.511 Q162.0808,185.511 162.6743,185.2412 Q163.2678,184.9715 163.8986,184.3904 Z " fill="#000000"/><text fill="#000000" font-family="sans-serif" font-size="14" lengthAdjust="spacing" textLength="68.4004" x="181.7223" y="186.261">CareTeam</text><line style="stroke:#181818;stroke-width:0.5;" x1="119.09" x2="280.4582" y1="196.97" y2="196.97"/><ellipse cx="129.09" cy="210.7141" fill="none" rx="3" ry="3" style="stroke:#038048;stroke-width:1.0;"/><text fill="#000000" font-family="sans-serif" font-size="14" lengthAdjust="spacing" textLength="137.3682" x="138.09" y="214.5052">participant: Member</text><text fill="#000000" font-family="sans-serif" font-size="14" lengthAdjust="spacing" textLength="13.2891" x="138.09" y="230.9934">...</text><line style="stroke:#181818;stroke-width:0.5;" x1="119.09" x2="280.4582" y1="237.9466" y2="237.9466"/></g><!--class Member--><g id="elem_Member"><rect codeLine="29" fill="#F1F1F1" height="97.4648" id="Member" rx="2.5" ry="2.5" style="stroke:#181818;stroke-width:0.5;" width="437.332" x="100.11" y="322.95"/><ellipse cx="286.8917" cy="338.95" fill="#ADD1B2" rx="11" ry="11" style="stroke:#181818;stroke-width:1.0;"/><path d="M289.3649,345.0931 Q288.7838,345.3919 288.1447,345.5413 Q287.5055,345.6907 286.7999,345.6907 Q284.2931,345.6907 282.9733,344.0389 Q281.6535,342.387 281.6535,339.2659 Q281.6535,336.1365 282.9733,334.4847 Q284.2931,332.8328 286.7999,332.8328 Q287.5055,332.8328 288.153,332.9822 Q288.8004,333.1316 289.3649,333.4305 L289.3649,336.1531 Q288.734,335.5721 288.1405,335.3023 Q287.547,335.0325 286.9162,335.0325 Q285.5714,335.0325 284.8866,336.0992 Q284.2018,337.1658 284.2018,339.2659 Q284.2018,341.3577 284.8866,342.4244 Q285.5714,343.491 286.9162,343.491 Q287.547,343.491 288.1405,343.2212 Q288.734,342.9515 289.3649,342.3704 Z " fill="#000000"/><text fill="#000000" font-family="sans-serif" font-size="14" lengthAdjust="spacing" textLength="55.2686" x="307.3917" y="344.241">Member</text><line style="stroke:#181818;stroke-width:0.5;" x1="101.11" x2="536.442" y1="354.95" y2="354.95"/><text fill="#000000" font-family="sans-serif" font-size="14" lengthAdjust="spacing" textLength="171.7666" x="106.11" y="372.4852">onBehalfOf: Organization</text><text fill="#000000" font-family="sans-serif" font-size="14" lengthAdjust="spacing" textLength="13.2891" x="106.11" y="388.9734">...</text><line style="stroke:#181818;stroke-width:0.5;" x1="101.11" x2="536.442" y1="395.9266" y2="395.9266"/><ellipse cx="111.11" cy="409.6707" fill="#84BE84" rx="3" ry="3" style="stroke:#038048;stroke-width:1.0;"/><text fill="#000000" font-family="sans-serif" font-size="14" lengthAdjust="spacing" textLength="411.332" x="120.11" y="413.4617">member: Reference(Practitioner | RelatedPerson | CareTeam)</text></g><!--reverse link Patient to CareTeam--><g id="link_Patient_CareTeam"><path codeLine="37" d="M199.78,94.25 C199.78,117.62 199.78,141.09 199.78,164.5 " fill="none" id="Patient-backto-CareTeam" style="stroke:#181818;stroke-width:1.0;"/><polygon fill="#181818" points="199.78,88.25,195.78,97.25,199.78,93.25,203.78,97.25,199.78,88.25" style="stroke:#181818;stroke-width:1.0;"/><polygon fill="#000000" points="204.78,121.6253,201.8411,130.6704,207.7189,130.6704,204.78,121.6253" style="stroke:#000000;stroke-width:1.0;"/><text fill="#000000" font-family="sans-serif" font-size="13" lengthAdjust="spacing" textLength="45.5952" x="213.78" y="131.5384">subject</text><text fill="#000000" font-family="sans-serif" font-size="13" lengthAdjust="spacing" textLength="8.2202" x="191.1608" y="108.5348">1</text><text fill="#000000" font-family="sans-serif" font-size="13" lengthAdjust="spacing" textLength="24.667" x="173.9216" y="154.3701">1..1</text></g><!--link Patient to Organization--><g id="link_Patient_Organization"><path codeLine="38" d="M158.93,88.32 C139.09,109.53 116.25,136.98 100.78,164.97 C75.76,210.24 73.64,224.83 65.78,275.95 C53.78,353.86 66.0911,440.1391 76.0111,491.4491 " fill="none" id="Patient-to-Organization" style="stroke:#181818;stroke-width:1.0;"/><polygon fill="#181818" points="77.15,497.34,79.3689,487.7444,76.2009,492.4309,71.5143,489.2629,77.15,497.34" style="stroke:#181818;stroke-width:1.0;"/><polygon fill="#000000" points="69.7726,289.5027,74.4736,281.2352,68.7163,280.051,69.7726,289.5027" style="stroke:#000000;stroke-width:1.0;"/><text fill="#000000" font-family="sans-serif" font-size="13" lengthAdjust="spacing" textLength="144.4346" x="79.78" y="289.5184">managingOrganization</text><text fill="#000000" font-family="sans-serif" font-size="13" lengthAdjust="spacing" textLength="8.2202" x="143.8003" y="108.616">1</text><text fill="#000000" font-family="sans-serif" font-size="13" lengthAdjust="spacing" textLength="24.667" x="49.6623" y="486.675">1..1</text></g><!--link CareTeam to Member--><g id="link_CareTeam_Member"><path codeLine="39" d="M216.36,246.25 C223.51,261.47 232.58,278.6 242.78,292.95 C249.99,303.1 254.455,308.7954 263.165,318.1654 " fill="none" id="CareTeam-to-Member" style="stroke:#181818;stroke-width:1.0;"/><polygon fill="#181818" points="267.25,322.56,264.0522,313.2448,263.8458,318.8978,258.1927,318.6915,267.25,322.56" style="stroke:#181818;stroke-width:1.0;"/><polygon fill="#000000" points="250.5074,288.7959,248.0367,279.6119,243.1103,282.8181,250.5074,288.7959" style="stroke:#000000;stroke-width:1.0;"/><text fill="#000000" font-family="sans-serif" font-size="13" lengthAdjust="spacing" textLength="68.0088" x="256.78" y="289.5184">participant</text><text fill="#000000" font-family="sans-serif" font-size="13" lengthAdjust="spacing" textLength="22.7119" x="195.307" y="266.5396">1..*</text></g><!--link Member to Practitioner--><g id="link_Member_Practitioner"><path codeLine="40" d="M369.28,420.62 C394.81,444.86 421.0775,469.8001 445.3275,492.8101 " fill="none" id="Member-to-Practitioner" style="stroke:#181818;stroke-width:1.0;"/><polygon fill="#181818" points="449.68,496.94,445.9046,487.8435,446.0529,493.4984,440.398,493.6468,449.68,496.94" style="stroke:#181818;stroke-width:1.0;"/><polygon fill="#000000" points="424.2563,462.5076,419.7196,454.1488,415.6729,458.4118,424.2563,462.5076" style="stroke:#000000;stroke-width:1.0;"/><text fill="#000000" font-family="sans-serif" font-size="13" lengthAdjust="spacing" textLength="52.2603" x="429.63" y="463.9784">member</text><text fill="#000000" font-family="sans-serif" font-size="13" lengthAdjust="spacing" textLength="8.2202" x="367.8351" y="441.1467">1</text><text fill="#000000" font-family="sans-serif" font-size="13" lengthAdjust="spacing" textLength="8.2202" x="434.3511" y="486.8101">1</text></g><!--link Member to Patient--><g id="link_Member_Patient"><path codeLine="41" d="M326.64,322.69 C327.95,312.88 329.1,302.6 329.78,292.95 C333.89,234.57 323.05,218.22 298.78,164.97 C285.73,136.35 267.711,113.5928 247.651,92.7528 " fill="none" id="Member-to-Patient" style="stroke:#181818;stroke-width:1.0;"/><polygon fill="#181818" points="243.49,88.43,246.8496,97.6881,246.9575,92.0323,252.6133,92.1402,243.49,88.43" style="stroke:#181818;stroke-width:1.0;"/><polygon fill="#000000" points="332.3356,200.8865,332.4947,210.3957,338.0537,208.4861,332.3356,200.8865" style="stroke:#000000;stroke-width:1.0;"/><text fill="#000000" font-family="sans-serif" font-size="13" lengthAdjust="spacing" textLength="52.2603" x="342.96" y="210.5284">member</text><text fill="#000000" font-family="sans-serif" font-size="13" lengthAdjust="spacing" textLength="8.2202" x="319.1989" y="312.3359">1</text></g><!--link Member to RelatedPerson--><g id="link_Member_RelatedPerson"><path codeLine="42" d="M312.94,420.62 C309.99,444.86 307.1648,467.9739 304.3648,490.9839 " fill="none" id="Member-to-RelatedPerson" style="stroke:#181818;stroke-width:1.0;"/><polygon fill="#181818" points="303.64,496.94,308.6979,488.4891,304.244,491.9766,300.7564,487.5227,303.64,496.94" style="stroke:#181818;stroke-width:1.0;"/><polygon fill="#000000" points="313.1751,464.0286,317.1867,455.4054,311.352,454.6944,313.1751,464.0286" style="stroke:#000000;stroke-width:1.0;"/><text fill="#000000" font-family="sans-serif" font-size="13" lengthAdjust="spacing" textLength="52.2603" x="322.78" y="463.9784">member</text><text fill="#000000" font-family="sans-serif" font-size="13" lengthAdjust="spacing" textLength="8.2202" x="303.5723" y="441.1467">1</text></g><!--link Member to Organization--><g id="link_Member_Organization"><path codeLine="43" d="M250.44,420.84 C216.07,445.07 179.8047,470.634 147.2347,493.584 " fill="none" id="Member-to-Organization" style="stroke:#181818;stroke-width:1.0;"/><polygon fill="#181818" points="142.33,497.04,151.991,495.1258,146.4172,494.16,147.383,488.5862,142.33,497.04" style="stroke:#181818;stroke-width:1.0;"/><polygon fill="#000000" points="203.1932,461.9459,212.2795,459.137,208.8931,454.3326,203.1932,461.9459" style="stroke:#000000;stroke-width:1.0;"/><text fill="#000000" font-family="sans-serif" font-size="13" lengthAdjust="spacing" textLength="69.437" x="216.28" y="463.9784">onBehalfOf</text><text fill="#000000" font-family="sans-serif" font-size="13" lengthAdjust="spacing" textLength="6.2651" x="234.872" y="441.0426">*</text></g><!--SRC=[bP5DJiCm48NtFiMG5JzA9BPM5Gcgga826bMzmDIPXAaIftBC1ihTSN6Qsj1ATENH-7sUDyzN9LMi2PQpwUhXTVuy0zLWtmjnR1HecRI5Jm5mnwKhkM8o4fx6sjraMIQ-Gcn93Leg2p9zfo-52uFAikLEaxcKNPWQDN_WdluV6y1JDBGYR3suHMDPyHQrbV12xVhqH7_ZaVQdbcxzYWnfHTVHBhjVkUp6YJUExlGZlM5JBIePhH5O5OVlIEuJcAIfExFCbQDn2VtxUaFAmYJIfcb-q4O9IMXHOyswZjgv65_SKxV-WM5J2K4oJZgqZsEIw0VT22_uenmCdXT4QPsG3Rv2wpA84V9l]--></g></svg>