<svg xmlns="http://www.w3.org/2000/svg" xmlns:xlink="http://www.w3.org/1999/xlink" contentStyleType="text/css" height="1104px" preserveAspectRatio="none" style="width:758px;height:1104px;background:#FFFFFF;" version="1.1" viewBox="0 0 758 1104" width="758px" zoomAndPan="magnify"><defs/><g><rect fill="none" height="211.1055" style="stroke:#000000;stroke-width:1.5;" width="731.3716" x="10" y="527.6992"/><rect fill="none" height="211.1055" style="stroke:#000000;stroke-width:1.5;" width="731.3716" x="10" y="752.8047"/><line style="stroke:#181818;stroke-width:0.5;stroke-dasharray:5.0,5.0;" x1="64" x2="64" y1="36.4883" y2="1068.8418"/><line style="stroke:#181818;stroke-width:0.5;stroke-dasharray:5.0,5.0;" x1="377.8989" x2="377.8989" y1="36.4883" y2="1068.8418"/><line style="stroke:#181818;stroke-width:0.5;stroke-dasharray:5.0,5.0;" x1="677.4282" x2="677.4282" y1="36.4883" y2="1068.8418"/><rect fill="#E2E2F0" height="30.4883" rx="2.5" ry="2.5" style="stroke:#181818;stroke-width:0.5;" width="88.1494" x="20" y="5"/><text fill="#000000" font-family="sans-serif" font-size="14" lengthAdjust="spacing" textLength="74.1494" x="27" y="25.5352">OZO Client</text><rect fill="#E2E2F0" height="30.4883" rx="2.5" ry="2.5" style="stroke:#181818;stroke-width:0.5;" width="88.1494" x="20" y="1067.8418"/><text fill="#000000" font-family="sans-serif" font-size="14" lengthAdjust="spacing" textLength="74.1494" x="27" y="1088.377">OZO Client</text><rect fill="#E2E2F0" height="30.4883" rx="2.5" ry="2.5" style="stroke:#181818;stroke-width:0.5;" width="70.54" x="342.8989" y="5"/><text fill="#000000" font-family="sans-serif" font-size="14" lengthAdjust="spacing" textLength="56.54" x="349.8989" y="25.5352">FHIR API</text><rect fill="#E2E2F0" height="30.4883" rx="2.5" ry="2.5" style="stroke:#181818;stroke-width:0.5;" width="70.54" x="342.8989" y="1067.8418"/><text fill="#000000" font-family="sans-serif" font-size="14" lengthAdjust="spacing" textLength="56.54" x="349.8989" y="1088.377">FHIR API</text><rect fill="#E2E2F0" height="30.4883" rx="2.5" ry="2.5" style="stroke:#181818;stroke-width:0.5;" width="105.9434" x="625.4282" y="5"/><text fill="#000000" font-family="sans-serif" font-size="14" lengthAdjust="spacing" textLength="91.9434" x="632.4282" y="25.5352">OZO Platform</text><rect fill="#E2E2F0" height="30.4883" rx="2.5" ry="2.5" style="stroke:#181818;stroke-width:0.5;" width="105.9434" x="625.4282" y="1067.8418"/><text fill="#000000" font-family="sans-serif" font-size="14" lengthAdjust="spacing" textLength="91.9434" x="632.4282" y="1088.377">OZO Platform</text><rect fill="#EEEEEE" height="3" style="stroke:#EEEEEE;stroke-width:1.0;" width="751.3716" x="0" y="67.1436"/><line style="stroke:#000000;stroke-width:1.0;" x1="0" x2="751.3716" y1="67.1436" y2="67.1436"/><line style="stroke:#000000;stroke-width:1.0;" x1="0" x2="751.3716" y1="70.1436" y2="70.1436"/><rect fill="#EEEEEE" height="23.3105" style="stroke:#000000;stroke-width:2.0;" width="232.9434" x="259.2141" y="56.4883"/><text fill="#000000" font-family="sans-serif" font-size="13" font-weight="bold" lengthAdjust="spacing" textLength="214.6587" x="265.2141" y="73.0566">CommunicationRequest Process</text><polygon fill="#181818" points="366.1689,137.7305,376.1689,141.7305,366.1689,145.7305,370.1689,141.7305" style="stroke:#181818;stroke-width:1.0;"/><line style="stroke:#181818;stroke-width:1.0;" x1="64.0747" x2="372.1689" y1="141.7305" y2="141.7305"/><text fill="#000000" font-family="sans-serif" font-size="13" lengthAdjust="spacing" textLength="195.0571" x="71.0747" y="106.3672">Create CommunicationRequest</text><text fill="#000000" font-family="sans-serif" font-size="13" lengthAdjust="spacing" textLength="91.1841" x="71.0747" y="121.6777">(status: 'draft')</text><text fill="#000000" font-family="sans-serif" font-size="13" lengthAdjust="spacing" textLength="117.2793" x="71.0747" y="136.9883">[As RelatedPerson]</text><polygon fill="#181818" points="666.3999,182.3516,676.3999,186.3516,666.3999,190.3516,670.3999,186.3516" style="stroke:#181818;stroke-width:1.0;"/><line style="stroke:#181818;stroke-width:1.0;" x1="378.1689" x2="672.3999" y1="186.3516" y2="186.3516"/><text fill="#000000" font-family="sans-serif" font-size="13" lengthAdjust="spacing" textLength="238.3164" x="385.1689" y="166.2988">Notify of new CommunicationRequest</text><text fill="#000000" font-family="sans-serif" font-size="13" lengthAdjust="spacing" textLength="110.4746" x="385.1689" y="181.6094">[Via Subscription]</text><polygon fill="#181818" points="389.1689,226.9727,379.1689,230.9727,389.1689,234.9727,385.1689,230.9727" style="stroke:#181818;stroke-width:1.0;"/><line style="stroke:#181818;stroke-width:1.0;" x1="383.1689" x2="677.3999" y1="230.9727" y2="230.9727"/><text fill="#000000" font-family="sans-serif" font-size="13" lengthAdjust="spacing" textLength="276.231" x="395.1689" y="210.9199">Request Delivery of CommunicationRequest</text><text fill="#000000" font-family="sans-serif" font-size="13" lengthAdjust="spacing" textLength="159.8911" x="395.1689" y="226.2305">[To process and approve]</text><polygon fill="#181818" points="666.3999,271.5938,676.3999,275.5938,666.3999,279.5938,670.3999,275.5938" style="stroke:#181818;stroke-width:1.0;"/><line style="stroke:#181818;stroke-width:1.0;" x1="378.1689" x2="672.3999" y1="275.5938" y2="275.5938"/><text fill="#000000" font-family="sans-serif" font-size="13" lengthAdjust="spacing" textLength="198.0024" x="385.1689" y="255.541">Deliver CommunicationRequest</text><text fill="#000000" font-family="sans-serif" font-size="13" lengthAdjust="spacing" textLength="92.2886" x="385.1689" y="270.8516">[To CareTeam]</text><polygon fill="#181818" points="389.1689,331.5254,379.1689,335.5254,389.1689,339.5254,385.1689,335.5254" style="stroke:#181818;stroke-width:1.0;"/><line style="stroke:#181818;stroke-width:1.0;" x1="383.1689" x2="677.3999" y1="335.5254" y2="335.5254"/><text fill="#000000" font-family="sans-serif" font-size="13" lengthAdjust="spacing" textLength="198.8721" x="395.1689" y="300.1621">Update CommunicationRequest</text><text fill="#000000" font-family="sans-serif" font-size="13" lengthAdjust="spacing" textLength="97.2905" x="395.1689" y="315.4727">(status: 'active')</text><text fill="#000000" font-family="sans-serif" font-size="13" lengthAdjust="spacing" textLength="98.2554" x="395.1689" y="330.7832">[After approval]</text><polygon fill="#181818" points="75.0747,376.1465,65.0747,380.1465,75.0747,384.1465,71.0747,380.1465" style="stroke:#181818;stroke-width:1.0;"/><line style="stroke:#181818;stroke-width:1.0;" x1="69.0747" x2="377.1689" y1="380.1465" y2="380.1465"/><text fill="#000000" font-family="sans-serif" font-size="13" lengthAdjust="spacing" textLength="271.9907" x="81.0747" y="360.0938">Notify of approved CommunicationRequest</text><text fill="#000000" font-family="sans-serif" font-size="13" lengthAdjust="spacing" textLength="110.4746" x="81.0747" y="375.4043">[Via Subscription]</text><polygon fill="#181818" points="366.1689,420.7676,376.1689,424.7676,366.1689,428.7676,370.1689,424.7676" style="stroke:#181818;stroke-width:1.0;"/><line style="stroke:#181818;stroke-width:1.0;" x1="64.0747" x2="372.1689" y1="424.7676" y2="424.7676"/><text fill="#000000" font-family="sans-serif" font-size="13" lengthAdjust="spacing" textLength="276.231" x="71.0747" y="404.7148">Request Delivery of CommunicationRequest</text><text fill="#000000" font-family="sans-serif" font-size="13" lengthAdjust="spacing" textLength="105.7329" x="71.0747" y="420.0254">[To verify status]</text><polygon fill="#181818" points="75.0747,465.3887,65.0747,469.3887,75.0747,473.3887,71.0747,469.3887" style="stroke:#181818;stroke-width:1.0;"/><line style="stroke:#181818;stroke-width:1.0;" x1="69.0747" x2="377.1689" y1="469.3887" y2="469.3887"/><text fill="#000000" font-family="sans-serif" font-size="13" lengthAdjust="spacing" textLength="198.0024" x="81.0747" y="449.3359">Deliver CommunicationRequest</text><text fill="#000000" font-family="sans-serif" font-size="13" lengthAdjust="spacing" textLength="117.8887" x="81.0747" y="464.6465">[To RelatedPerson]</text><rect fill="#EEEEEE" height="3" style="stroke:#EEEEEE;stroke-width:1.0;" width="751.3716" x="0" y="498.0439"/><line style="stroke:#000000;stroke-width:1.0;" x1="0" x2="751.3716" y1="498.0439" y2="498.0439"/><line style="stroke:#000000;stroke-width:1.0;" x1="0" x2="751.3716" y1="501.0439" y2="501.0439"/><rect fill="#EEEEEE" height="23.3105" style="stroke:#000000;stroke-width:2.0;" width="178.9692" x="286.2012" y="487.3887"/><text fill="#000000" font-family="sans-serif" font-size="13" font-weight="bold" lengthAdjust="spacing" textLength="160.6846" x="292.2012" y="503.957">Communication Process</text><path d="M10,527.6992 L84.4468,527.6992 L84.4468,535.0098 L74.4468,545.0098 L10,545.0098 L10,527.6992 " fill="#EEEEEE" style="stroke:#000000;stroke-width:1.5;"/><rect fill="none" height="211.1055" style="stroke:#000000;stroke-width:1.5;" width="731.3716" x="10" y="527.6992"/><text fill="#000000" font-family="sans-serif" font-size="13" font-weight="bold" lengthAdjust="spacing" textLength="29.4468" x="25" y="541.2676">loop</text><text fill="#000000" font-family="sans-serif" font-size="11" font-weight="bold" lengthAdjust="spacing" textLength="210.0098" x="99.4468" y="540.334">[Multiple Responses from CareTeam]</text><polygon fill="#181818" points="389.1689,592.9414,379.1689,596.9414,389.1689,600.9414,385.1689,596.9414" style="stroke:#181818;stroke-width:1.0;"/><line style="stroke:#181818;stroke-width:1.0;" x1="383.1689" x2="677.3999" y1="596.9414" y2="596.9414"/><text fill="#000000" font-family="sans-serif" font-size="13" lengthAdjust="spacing" textLength="144.6123" x="395.1689" y="561.5781">Create Communication</text><text fill="#000000" font-family="sans-serif" font-size="13" lengthAdjust="spacing" textLength="187.167" x="395.1689" y="576.8887">[CareTeam -&gt; RelatedPerson]</text><text fill="#000000" font-family="sans-serif" font-size="13" lengthAdjust="spacing" textLength="170.9233" x="395.1689" y="592.1992">[Send a response message]</text><polygon fill="#181818" points="75.0747,637.5625,65.0747,641.5625,75.0747,645.5625,71.0747,641.5625" style="stroke:#181818;stroke-width:1.0;"/><line style="stroke:#181818;stroke-width:1.0;" x1="69.0747" x2="377.1689" y1="641.5625" y2="641.5625"/><text fill="#000000" font-family="sans-serif" font-size="13" lengthAdjust="spacing" textLength="222.7393" x="81.0747" y="621.5098">Notify of Response Communication</text><text fill="#000000" font-family="sans-serif" font-size="13" lengthAdjust="spacing" textLength="110.4746" x="81.0747" y="636.8203">[Via Subscription]</text><polygon fill="#181818" points="366.1689,682.1836,376.1689,686.1836,366.1689,690.1836,370.1689,686.1836" style="stroke:#181818;stroke-width:1.0;"/><line style="stroke:#181818;stroke-width:1.0;" x1="64.0747" x2="372.1689" y1="686.1836" y2="686.1836"/><text fill="#000000" font-family="sans-serif" font-size="13" lengthAdjust="spacing" textLength="290.0942" x="71.0747" y="666.1309">Request Delivery of Response Communication</text><text fill="#000000" font-family="sans-serif" font-size="13" lengthAdjust="spacing" textLength="138.8232" x="71.0747" y="681.4414">[To process response]</text><polygon fill="#181818" points="75.0747,726.8047,65.0747,730.8047,75.0747,734.8047,71.0747,730.8047" style="stroke:#181818;stroke-width:1.0;"/><line style="stroke:#181818;stroke-width:1.0;" x1="69.0747" x2="377.1689" y1="730.8047" y2="730.8047"/><text fill="#000000" font-family="sans-serif" font-size="13" lengthAdjust="spacing" textLength="211.8657" x="81.0747" y="710.752">Deliver Response Communication</text><text fill="#000000" font-family="sans-serif" font-size="13" lengthAdjust="spacing" textLength="117.8887" x="81.0747" y="726.0625">[To RelatedPerson]</text><path d="M10,752.8047 L84.4468,752.8047 L84.4468,760.1152 L74.4468,770.1152 L10,770.1152 L10,752.8047 " fill="#EEEEEE" style="stroke:#000000;stroke-width:1.5;"/><rect fill="none" height="211.1055" style="stroke:#000000;stroke-width:1.5;" width="731.3716" x="10" y="752.8047"/><text fill="#000000" font-family="sans-serif" font-size="13" font-weight="bold" lengthAdjust="spacing" textLength="29.4468" x="25" y="766.373">loop</text><text fill="#000000" font-family="sans-serif" font-size="11" font-weight="bold" lengthAdjust="spacing" textLength="228.6045" x="99.4468" y="765.4395">[Multiple Messages from RelatedPerson]</text><polygon fill="#181818" points="366.1689,818.0469,376.1689,822.0469,366.1689,826.0469,370.1689,822.0469" style="stroke:#181818;stroke-width:1.0;"/><line style="stroke:#181818;stroke-width:1.0;" x1="64.0747" x2="372.1689" y1="822.0469" y2="822.0469"/><text fill="#000000" font-family="sans-serif" font-size="13" lengthAdjust="spacing" textLength="144.6123" x="71.0747" y="786.6836">Create Communication</text><text fill="#000000" font-family="sans-serif" font-size="13" lengthAdjust="spacing" textLength="187.167" x="71.0747" y="801.9941">[RelatedPerson -&gt; CareTeam]</text><text fill="#000000" font-family="sans-serif" font-size="13" lengthAdjust="spacing" textLength="109.5161" x="71.0747" y="817.3047">[Send a message]</text><polygon fill="#181818" points="666.3999,862.668,676.3999,866.668,666.3999,870.668,670.3999,866.668" style="stroke:#181818;stroke-width:1.0;"/><line style="stroke:#181818;stroke-width:1.0;" x1="378.1689" x2="672.3999" y1="866.668" y2="866.668"/><text fill="#000000" font-family="sans-serif" font-size="13" lengthAdjust="spacing" textLength="187.8716" x="385.1689" y="846.6152">Notify of new Communication</text><text fill="#000000" font-family="sans-serif" font-size="13" lengthAdjust="spacing" textLength="110.4746" x="385.1689" y="861.9258">[Via Subscription]</text><polygon fill="#181818" points="389.1689,907.2891,379.1689,911.2891,389.1689,915.2891,385.1689,911.2891" style="stroke:#181818;stroke-width:1.0;"/><line style="stroke:#181818;stroke-width:1.0;" x1="383.1689" x2="677.3999" y1="911.2891" y2="911.2891"/><text fill="#000000" font-family="sans-serif" font-size="13" lengthAdjust="spacing" textLength="225.7861" x="395.1689" y="891.2363">Request Delivery of Communication</text><text fill="#000000" font-family="sans-serif" font-size="13" lengthAdjust="spacing" textLength="136.6904" x="395.1689" y="906.5469">[To process message]</text><polygon fill="#181818" points="666.3999,951.9102,676.3999,955.9102,666.3999,959.9102,670.3999,955.9102" style="stroke:#181818;stroke-width:1.0;"/><line style="stroke:#181818;stroke-width:1.0;" x1="378.1689" x2="672.3999" y1="955.9102" y2="955.9102"/><text fill="#000000" font-family="sans-serif" font-size="13" lengthAdjust="spacing" textLength="147.5576" x="385.1689" y="935.8574">Deliver Communication</text><text fill="#000000" font-family="sans-serif" font-size="13" lengthAdjust="spacing" textLength="92.2886" x="385.1689" y="951.168">[To CareTeam]</text><rect fill="#EEEEEE" height="3" style="stroke:#EEEEEE;stroke-width:1.0;" width="751.3716" x="0" y="991.5654"/><line style="stroke:#000000;stroke-width:1.0;" x1="0" x2="751.3716" y1="991.5654" y2="991.5654"/><line style="stroke:#000000;stroke-width:1.0;" x1="0" x2="751.3716" y1="994.5654" y2="994.5654"/><rect fill="#EEEEEE" height="23.3105" style="stroke:#000000;stroke-width:2.0;" width="276.4629" x="237.4543" y="980.9102"/><text fill="#000000" font-family="sans-serif" font-size="13" font-weight="bold" lengthAdjust="spacing" textLength="258.1782" x="243.4543" y="997.4785">Completion of CommunicationRequest</text><polygon fill="#181818" points="366.1689,1046.8418,376.1689,1050.8418,366.1689,1054.8418,370.1689,1050.8418" style="stroke:#181818;stroke-width:1.0;"/><line style="stroke:#181818;stroke-width:1.0;" x1="64.0747" x2="372.1689" y1="1050.8418" y2="1050.8418"/><text fill="#000000" font-family="sans-serif" font-size="13" lengthAdjust="spacing" textLength="198.8721" x="71.0747" y="1030.7891">Update CommunicationRequest</text><text fill="#000000" font-family="sans-serif" font-size="13" lengthAdjust="spacing" textLength="127.1118" x="71.0747" y="1046.0996">(status: 'completed')</text><!--SRC=[bPJFReCm3CRlF8MrIzV3Ng0IaogcQJrqHMstmzeUCZ1J94Yo97JQsyy9i1OA_SCjSlpvoyysYcdB4wwOi72t-5X0b7CKzWwOWMKy3THn_FbbjeHfFFDHTsY7NNgSCvj9NVWhqNeQ1648aIoAKl24MIx54hzBD1PYBHCq1i8me4BmyEWLOGAHHcQnDsahxerbjZGJ6AMQPNOqtehDbAmYrSKqHcsas0LUYHJ900c-IikpNv0P2FmPqDsySmQhyjCacYiNsGKk-U2giVs4ET-Zzd83Kci9gduS4oamHQSzTbtLGcT48gPnZQpeMdbJwJM0M6AfG4KeirIfCiBoWnC7_fXFRJMz7bAxTRT1eXkkRcMuQ-eodaxFJmRjUC9oAHNCoznobIDb6YM5GGEPbiK_vm3eQwFkcqMgtcHukoqR55oXQphekWWKv85zKV-T_13vnj99gLFaJkOoza71e-biBFPPQ_YVq-bqWDuTT4ZFgxVNe5ltUzunGBkLvXUeMOm3xLx85zT_aE-Dkz_6UiPBxrHtjzrphAQP6FfH7jYZqv_dbV-6f9B6T3J-0m00]--></g></svg>