<svg xmlns="http://www.w3.org/2000/svg" xmlns:xlink="http://www.w3.org/1999/xlink" contentStyleType="text/css" height="717px" preserveAspectRatio="none" style="width:1114px;height:717px;background:#FFFFFF;" version="1.1" viewBox="0 0 1114 717" width="1114px" zoomAndPan="magnify"><defs/><g><!--class Patient--><g id="elem_Patient"><rect codeLine="3" fill="#F1F1F1" height="80.9766" id="Patient" rx="2.5" ry="2.5" style="stroke:#181818;stroke-width:0.5;" width="157.5508" x="155.37" y="7"/><ellipse cx="206.6566" cy="23" fill="#ADD1B2" rx="11" ry="11" style="stroke:#181818;stroke-width:1.0;"/><path d="M209.1298,29.1431 Q208.5487,29.4419 207.9096,29.5913 Q207.2704,29.7407 206.5648,29.7407 Q204.058,29.7407 202.7382,28.0889 Q201.4183,26.437 201.4183,23.3159 Q201.4183,20.1865 202.7382,18.5347 Q204.058,16.8828 206.5648,16.8828 Q207.2704,16.8828 207.9179,17.0322 Q208.5653,17.1816 209.1298,17.4805 L209.1298,20.2031 Q208.4989,19.6221 207.9054,19.3523 Q207.3119,19.0825 206.681,19.0825 Q205.3363,19.0825 204.6515,20.1492 Q203.9667,21.2158 203.9667,23.3159 Q203.9667,25.4077 204.6515,26.4744 Q205.3363,27.541 206.681,27.541 Q207.3119,27.541 207.9054,27.2712 Q208.4989,27.0015 209.1298,26.4204 Z " fill="#000000"/><text fill="#000000" font-family="sans-serif" font-size="14" lengthAdjust="spacing" textLength="46.4775" x="227.1566" y="28.291">Patient</text><line style="stroke:#181818;stroke-width:0.5;" x1="156.37" x2="311.9208" y1="39" y2="39"/><ellipse cx="166.37" cy="52.7441" fill="none" rx="3" ry="3" style="stroke:#038048;stroke-width:1.0;"/><text fill="#000000" font-family="sans-serif" font-size="14" lengthAdjust="spacing" textLength="131.5508" x="175.37" y="56.5352">identifier: Identifier</text><text fill="#000000" font-family="sans-serif" font-size="14" lengthAdjust="spacing" textLength="13.2891" x="175.37" y="73.0234">...</text><line style="stroke:#181818;stroke-width:0.5;" x1="156.37" x2="311.9208" y1="79.9766" y2="79.9766"/></g><!--class CareTeam--><g id="elem_CareTeam"><rect codeLine="8" fill="#F1F1F1" height="80.9766" id="CareTeam" rx="2.5" ry="2.5" style="stroke:#181818;stroke-width:0.5;" width="454.292" x="7" y="206.2"/><ellipse cx="195.6958" cy="222.2" fill="#ADD1B2" rx="11" ry="11" style="stroke:#181818;stroke-width:1.0;"/><path d="M198.1689,228.3431 Q197.5879,228.6419 196.9487,228.7913 Q196.3096,228.9407 195.604,228.9407 Q193.0972,228.9407 191.7773,227.2889 Q190.4575,225.637 190.4575,222.5159 Q190.4575,219.3865 191.7773,217.7347 Q193.0972,216.0828 195.604,216.0828 Q196.3096,216.0828 196.957,216.2322 Q197.6045,216.3816 198.1689,216.6805 L198.1689,219.4031 Q197.5381,218.8221 196.9446,218.5523 Q196.3511,218.2825 195.7202,218.2825 Q194.3755,218.2825 193.6907,219.3492 Q193.0059,220.4158 193.0059,222.5159 Q193.0059,224.6077 193.6907,225.6744 Q194.3755,226.741 195.7202,226.741 Q196.3511,226.741 196.9446,226.4712 Q197.5381,226.2015 198.1689,225.6204 Z " fill="#000000"/><text fill="#000000" font-family="sans-serif" font-size="14" lengthAdjust="spacing" textLength="68.4004" x="216.1958" y="227.491">CareTeam</text><line style="stroke:#181818;stroke-width:0.5;" x1="8" x2="460.292" y1="238.2" y2="238.2"/><text fill="#000000" font-family="sans-serif" font-size="14" lengthAdjust="spacing" textLength="13.2891" x="13" y="255.7352">...</text><line style="stroke:#181818;stroke-width:0.5;" x1="8" x2="460.292" y1="262.6883" y2="262.6883"/><ellipse cx="18" cy="276.4324" fill="#84BE84" rx="3" ry="3" style="stroke:#038048;stroke-width:1.0;"/><text fill="#000000" font-family="sans-serif" font-size="14" lengthAdjust="spacing" textLength="428.292" x="27" y="280.2234">participant: Reference(Practitioner | RelatedPerson | CareTeam)</text></g><!--class CommunicationRequest--><g id="elem_CommunicationRequest"><rect codeLine="13" fill="#F1F1F1" height="163.418" id="CommunicationRequest" rx="2.5" ry="2.5" style="stroke:#181818;stroke-width:0.5;" width="336.2148" x="666.04" y="164.98"/><ellipse cx="749.0727" cy="180.98" fill="#ADD1B2" rx="11" ry="11" style="stroke:#181818;stroke-width:1.0;"/><path d="M751.5459,187.1231 Q750.9648,187.4219 750.3256,187.5713 Q749.6865,187.7207 748.9809,187.7207 Q746.4741,187.7207 745.1543,186.0689 Q743.8344,184.417 743.8344,181.2959 Q743.8344,178.1665 745.1543,176.5147 Q746.4741,174.8628 748.9809,174.8628 Q749.6865,174.8628 750.3339,175.0122 Q750.9814,175.1616 751.5459,175.4605 L751.5459,178.1831 Q750.915,177.6021 750.3215,177.3323 Q749.728,177.0625 749.0971,177.0625 Q747.7524,177.0625 747.0676,178.1292 Q746.3828,179.1958 746.3828,181.2959 Q746.3828,183.3877 747.0676,184.4544 Q747.7524,185.521 749.0971,185.521 Q749.728,185.521 750.3215,185.2512 Q750.915,184.9815 751.5459,184.4004 Z " fill="#000000"/><text fill="#000000" font-family="sans-serif" font-size="14" lengthAdjust="spacing" textLength="161.6494" x="769.5727" y="186.271">CommunicationRequest</text><line style="stroke:#181818;stroke-width:0.5;" x1="667.04" x2="1001.2548" y1="196.98" y2="196.98"/><ellipse cx="677.04" cy="210.7241" fill="none" rx="3" ry="3" style="stroke:#038048;stroke-width:1.0;"/><text fill="#000000" font-family="sans-serif" font-size="14" lengthAdjust="spacing" textLength="82.4072" x="686.04" y="214.5152">status: code</text><ellipse cx="677.04" cy="227.2124" fill="none" rx="3" ry="3" style="stroke:#038048;stroke-width:1.0;"/><text fill="#000000" font-family="sans-serif" font-size="14" lengthAdjust="spacing" textLength="310.2148" x="686.04" y="231.0034">payload.contentString: string : "The message"</text><ellipse cx="677.04" cy="243.7007" fill="none" rx="3" ry="3" style="stroke:#038048;stroke-width:1.0;"/><text fill="#000000" font-family="sans-serif" font-size="14" lengthAdjust="spacing" textLength="274.791" x="686.04" y="247.4917">payload.contentAttachment: Attachment</text><text fill="#000000" font-family="sans-serif" font-size="14" lengthAdjust="spacing" textLength="13.2891" x="686.04" y="263.98">...</text><line style="stroke:#181818;stroke-width:0.5;" x1="667.04" x2="1001.2548" y1="270.9331" y2="270.9331"/><ellipse cx="677.04" cy="284.6773" fill="#84BE84" rx="3" ry="3" style="stroke:#038048;stroke-width:1.0;"/><text fill="#000000" font-family="sans-serif" font-size="14" lengthAdjust="spacing" textLength="180.332" x="686.04" y="288.4683">subject: Reference(Patient)</text><ellipse cx="677.04" cy="301.1655" fill="#84BE84" rx="3" ry="3" style="stroke:#038048;stroke-width:1.0;"/><text fill="#000000" font-family="sans-serif" font-size="14" lengthAdjust="spacing" textLength="259.8271" x="686.04" y="304.9566">sender: Reference(CareTeam member)</text><ellipse cx="677.04" cy="317.6538" fill="#84BE84" rx="3" ry="3" style="stroke:#038048;stroke-width:1.0;"/><text fill="#000000" font-family="sans-serif" font-size="14" lengthAdjust="spacing" textLength="273.1914" x="686.04" y="321.4448">recipient: Reference(CareTeam member)</text></g><!--class Communication--><g id="elem_Communication"><rect codeLine="23" fill="#F1F1F1" height="113.9531" id="Communication" rx="2.5" ry="2.5" style="stroke:#181818;stroke-width:0.5;" width="336.2148" x="666.04" y="405.39"/><ellipse cx="776.2353" cy="421.39" fill="#ADD1B2" rx="11" ry="11" style="stroke:#181818;stroke-width:1.0;"/><path d="M778.7085,427.5331 Q778.1274,427.8319 777.4882,427.9813 Q776.8491,428.1307 776.1435,428.1307 Q773.6367,428.1307 772.3169,426.4789 Q770.997,424.827 770.997,421.7059 Q770.997,418.5765 772.3169,416.9247 Q773.6367,415.2728 776.1435,415.2728 Q776.8491,415.2728 777.4965,415.4222 Q778.144,415.5716 778.7085,415.8705 L778.7085,418.5931 Q778.0776,418.0121 777.4841,417.7423 Q776.8906,417.4725 776.2597,417.4725 Q774.915,417.4725 774.2302,418.5392 Q773.5454,419.6058 773.5454,421.7059 Q773.5454,423.7977 774.2302,424.8644 Q774.915,425.931 776.2597,425.931 Q776.8906,425.931 777.4841,425.6612 Q778.0776,425.3915 778.7085,424.8104 Z " fill="#000000"/><text fill="#000000" font-family="sans-serif" font-size="14" lengthAdjust="spacing" textLength="107.3242" x="796.7353" y="426.681">Communication</text><line style="stroke:#181818;stroke-width:0.5;" x1="667.04" x2="1001.2548" y1="437.39" y2="437.39"/><ellipse cx="677.04" cy="451.1341" fill="none" rx="3" ry="3" style="stroke:#038048;stroke-width:1.0;"/><text fill="#000000" font-family="sans-serif" font-size="14" lengthAdjust="spacing" textLength="310.2148" x="686.04" y="454.9252">payload.contentString: string : "The message"</text><ellipse cx="677.04" cy="467.6224" fill="none" rx="3" ry="3" style="stroke:#038048;stroke-width:1.0;"/><text fill="#000000" font-family="sans-serif" font-size="14" lengthAdjust="spacing" textLength="274.791" x="686.04" y="471.4134">payload.contentAttachment: Attachment</text><text fill="#000000" font-family="sans-serif" font-size="14" lengthAdjust="spacing" textLength="13.2891" x="686.04" y="487.9017">...</text><line style="stroke:#181818;stroke-width:0.5;" x1="667.04" x2="1001.2548" y1="494.8548" y2="494.8548"/><ellipse cx="677.04" cy="508.599" fill="#84BE84" rx="3" ry="3" style="stroke:#038048;stroke-width:1.0;"/><text fill="#000000" font-family="sans-serif" font-size="14" lengthAdjust="spacing" textLength="306.2568" x="686.04" y="512.39">basedOn: Reference(CommunicationRequest)</text></g><!--class Task--><g id="elem_Task"><rect codeLine="30" fill="#F1F1F1" height="113.9531" id="Task" rx="2.5" ry="2.5" style="stroke:#181818;stroke-width:0.5;" width="332.2568" x="521.02" y="596.35"/><ellipse cx="666.9468" cy="612.35" fill="#ADD1B2" rx="11" ry="11" style="stroke:#181818;stroke-width:1.0;"/><path d="M669.4199,618.4931 Q668.8388,618.7919 668.1997,618.9413 Q667.5605,619.0907 666.855,619.0907 Q664.3481,619.0907 663.0283,617.4389 Q661.7085,615.787 661.7085,612.6659 Q661.7085,609.5365 663.0283,607.8847 Q664.3481,606.2328 666.855,606.2328 Q667.5605,606.2328 668.208,606.3822 Q668.8554,606.5316 669.4199,606.8305 L669.4199,609.5531 Q668.789,608.9721 668.1955,608.7023 Q667.602,608.4325 666.9712,608.4325 Q665.6264,608.4325 664.9416,609.4992 Q664.2568,610.5658 664.2568,612.6659 Q664.2568,614.7577 664.9416,615.8244 Q665.6264,616.891 666.9712,616.891 Q667.602,616.891 668.1955,616.6212 Q668.789,616.3515 669.4199,615.7704 Z " fill="#000000"/><text fill="#000000" font-family="sans-serif" font-size="14" lengthAdjust="spacing" textLength="31.9033" x="687.4468" y="617.641">Task</text><line style="stroke:#181818;stroke-width:0.5;" x1="522.02" x2="852.2768" y1="628.35" y2="628.35"/><ellipse cx="532.02" cy="642.0941" fill="none" rx="3" ry="3" style="stroke:#038048;stroke-width:1.0;"/><text fill="#000000" font-family="sans-serif" font-size="14" lengthAdjust="spacing" textLength="82.4072" x="541.02" y="645.8852">status: code</text><text fill="#000000" font-family="sans-serif" font-size="14" lengthAdjust="spacing" textLength="13.2891" x="541.02" y="662.3734">...</text><line style="stroke:#181818;stroke-width:0.5;" x1="522.02" x2="852.2768" y1="669.3266" y2="669.3266"/><ellipse cx="532.02" cy="683.0707" fill="#84BE84" rx="3" ry="3" style="stroke:#038048;stroke-width:1.0;"/><text fill="#000000" font-family="sans-serif" font-size="14" lengthAdjust="spacing" textLength="228.8193" x="541.02" y="686.8617">focus: Reference(Communication)</text><ellipse cx="532.02" cy="699.559" fill="#84BE84" rx="3" ry="3" style="stroke:#038048;stroke-width:1.0;"/><text fill="#000000" font-family="sans-serif" font-size="14" lengthAdjust="spacing" textLength="306.2568" x="541.02" y="703.35">basedOn: Reference(CommunicationRequest)</text></g><!--class Attachment--><g id="elem_Attachment"><rect codeLine="37" fill="#F1F1F1" height="97.4648" id="Attachment" rx="2.5" ry="2.5" style="stroke:#181818;stroke-width:0.5;" width="155.1172" x="941.59" y="604.59"/><ellipse cx="976.6598" cy="620.59" fill="#ADD1B2" rx="11" ry="11" style="stroke:#181818;stroke-width:1.0;"/><path d="M979.133,626.7331 Q978.5519,627.0319 977.9128,627.1813 Q977.2736,627.3307 976.568,627.3307 Q974.0612,627.3307 972.7414,625.6789 Q971.4215,624.027 971.4215,620.9059 Q971.4215,617.7765 972.7414,616.1247 Q974.0612,614.4728 976.568,614.4728 Q977.2736,614.4728 977.9211,614.6222 Q978.5685,614.7716 979.133,615.0705 L979.133,617.7931 Q978.5021,617.2121 977.9086,616.9423 Q977.3151,616.6725 976.6842,616.6725 Q975.3395,616.6725 974.6547,617.7392 Q973.9699,618.8058 973.9699,620.9059 Q973.9699,622.9977 974.6547,624.0644 Q975.3395,625.131 976.6842,625.131 Q977.3151,625.131 977.9086,624.8612 Q978.5021,624.5915 979.133,624.0104 Z " fill="#000000"/><text fill="#000000" font-family="sans-serif" font-size="14" lengthAdjust="spacing" textLength="78.5176" x="995.1198" y="625.881">Attachment</text><line style="stroke:#181818;stroke-width:0.5;" x1="942.59" x2="1095.7072" y1="636.59" y2="636.59"/><ellipse cx="952.59" cy="650.3341" fill="none" rx="3" ry="3" style="stroke:#038048;stroke-width:1.0;"/><text fill="#000000" font-family="sans-serif" font-size="14" lengthAdjust="spacing" textLength="125.4395" x="961.59" y="654.1252">contentType: code</text><ellipse cx="952.59" cy="666.8224" fill="none" rx="3" ry="3" style="stroke:#038048;stroke-width:1.0;"/><text fill="#000000" font-family="sans-serif" font-size="14" lengthAdjust="spacing" textLength="129.1172" x="961.59" y="670.6134">data: base64Binary</text><text fill="#000000" font-family="sans-serif" font-size="14" lengthAdjust="spacing" textLength="13.2891" x="961.59" y="687.1017">...</text><line style="stroke:#181818;stroke-width:0.5;" x1="942.59" x2="1095.7072" y1="694.0548" y2="694.0548"/></g><!--reverse link Patient to CareTeam--><g id="link_Patient_CareTeam"><path codeLine="43" d="M234.15,94.39 C234.15,128.61 234.15,171.64 234.15,205.84 " fill="none" id="Patient-backto-CareTeam" style="stroke:#181818;stroke-width:1.0;"/><polygon fill="#181818" points="234.15,88.39,230.15,97.39,234.15,93.39,238.15,97.39,234.15,88.39" style="stroke:#181818;stroke-width:1.0;"/><polygon fill="#000000" points="239.15,131.6353,242.0889,122.5902,236.2111,122.5902,239.15,131.6353" style="stroke:#000000;stroke-width:1.0;"/><text fill="#000000" font-family="sans-serif" font-size="13" lengthAdjust="spacing" textLength="21.874" x="248.15" y="131.5484">has</text><text fill="#000000" font-family="sans-serif" font-size="13" lengthAdjust="spacing" textLength="8.2202" x="225.5551" y="108.3936">1</text><text fill="#000000" font-family="sans-serif" font-size="13" lengthAdjust="spacing" textLength="22.7119" x="210.3877" y="195.4264">1..*</text></g><!--link CareTeam to CommunicationRequest--><g id="link_CareTeam_CommunicationRequest"><path codeLine="44" d="M461.41,246.68 C529.24,246.68 596.35,246.68 659.7,246.68 " fill="none" id="CareTeam-to-CommunicationRequest" style="stroke:#181818;stroke-width:1.0;"/><polygon fill="#181818" points="665.7,246.68,656.7,242.68,660.7,246.68,656.7,250.68,665.7,246.68" style="stroke:#181818;stroke-width:1.0;"/><polygon fill="#000000" points="488.67,235.3353,479.6249,232.3963,479.6249,238.2742,488.67,235.3353" style="stroke:#000000;stroke-width:1.0;"/><text fill="#000000" font-family="sans-serif" font-size="13" lengthAdjust="spacing" textLength="155.6064" x="492.67" y="240.2484">requests communication</text><text fill="#000000" font-family="sans-serif" font-size="13" lengthAdjust="spacing" textLength="22.7119" x="469.2397" y="259.4993">1..*</text></g><!--reverse link CommunicationRequest to Communication--><g id="link_CommunicationRequest_Communication"><path codeLine="45" d="M834.15,334.77 C834.15,360.16 834.15,381.61 834.15,404.91 " fill="none" id="CommunicationRequest-backto-Communication" style="stroke:#181818;stroke-width:1.0;"/><polygon fill="#181818" points="834.15,328.77,830.15,337.77,834.15,333.77,838.15,337.77,834.15,328.77" style="stroke:#181818;stroke-width:1.0;"/><text fill="#000000" font-family="sans-serif" font-size="13" lengthAdjust="spacing" textLength="57.5796" x="835.15" y="371.9584">based on</text><text fill="#000000" font-family="sans-serif" font-size="13" lengthAdjust="spacing" textLength="22.7119" x="810.8531" y="394.5807">0..*</text></g><!--reverse link Communication to Task--><g id="link_Communication_Task"><path codeLine="46" d="M786.5551,524.5452 C767.8551,548.5752 749.78,571.81 731.08,595.85 " fill="none" id="Communication-backto-Task" style="stroke:#181818;stroke-width:1.0;"/><polygon fill="#181818" points="790.24,519.81,781.5559,524.4562,787.1693,523.756,787.8695,529.3693,790.24,519.81" style="stroke:#181818;stroke-width:1.0;"/><polygon fill="#000000" points="766.9798,561.9516,774.8535,556.6173,770.2143,553.008,766.9798,561.9516" style="stroke:#000000;stroke-width:1.0;"/><text fill="#000000" font-family="sans-serif" font-size="13" lengthAdjust="spacing" textLength="65.4951" x="779.05" y="562.9184">is focus of</text><text fill="#000000" font-family="sans-serif" font-size="13" lengthAdjust="spacing" textLength="22.7119" x="713.1369" y="585.5183">0..*</text></g><!--link CommunicationRequest to Attachment--><g id="link_CommunicationRequest_Attachment"><path codeLine="47" d="M960.64,328.65 C984.74,350.44 1006.62,376.2 1020.15,405.39 C1049.7,469.19 1040.97,552.59 1030.89,604.29 " fill="none" id="CommunicationRequest-Attachment" style="stroke:#181818;stroke-width:1.0;"/><polygon fill="#000000" points="1046.6248,467.3704,1047.2389,457.8797,1041.5431,459.3313,1046.6248,467.3704" style="stroke:#000000;stroke-width:1.0;"/><text fill="#000000" font-family="sans-serif" font-size="13" lengthAdjust="spacing" textLength="52.3618" x="1054.39" y="467.4384">includes</text><text fill="#000000" font-family="sans-serif" font-size="13" lengthAdjust="spacing" textLength="22.7119" x="948.5957" y="348.9198">0..*</text></g><!--link Communication to Attachment--><g id="link_Communication_Attachment"><path codeLine="48" d="M889.4,519.81 C915.7,546.67 946.82,578.45 971.99,604.16 " fill="none" id="Communication-Attachment" style="stroke:#181818;stroke-width:1.0;"/><polygon fill="#000000" points="940.6881,561.5779,936.4599,553.0589,932.2601,557.1711,940.6881,561.5779" style="stroke:#000000;stroke-width:1.0;"/><text fill="#000000" font-family="sans-serif" font-size="13" lengthAdjust="spacing" textLength="52.3618" x="946.19" y="562.9184">includes</text><text fill="#000000" font-family="sans-serif" font-size="13" lengthAdjust="spacing" textLength="22.7119" x="872.5579" y="539.9054">0..*</text></g><!--link Task to CommunicationRequest--><g id="link_Task_CommunicationRequest"><path codeLine="49" d="M625.14,595.86 C605.57,574.09 586.4,547.62 576.15,519.35 C558.89,471.73 551.37,449.57 576.15,405.39 C596.82,368.53 624.9407,342.4854 660.7207,319.6754 " fill="none" id="Task-to-CommunicationRequest" style="stroke:#181818;stroke-width:1.0;"/><polygon fill="#181818" points="665.78,316.45,656.0407,317.9152,661.5639,319.1378,660.3412,324.661,665.78,316.45" style="stroke:#181818;stroke-width:1.0;"/><polygon fill="#000000" points="581.7889,457.5663,577.7183,466.1617,583.548,466.9127,581.7889,457.5663" style="stroke:#000000;stroke-width:1.0;"/><text fill="#000000" font-family="sans-serif" font-size="13" lengthAdjust="spacing" textLength="57.5796" x="590.15" y="467.4384">based on</text><text fill="#000000" font-family="sans-serif" font-size="13" lengthAdjust="spacing" textLength="22.7119" x="594.2855" y="585.5295">0..*</text></g><!--SRC=[lLB1JiCm3BttAqnF3DGA9CGXGfF6D24a1DFe3tY9kmRMP2JfOGB-dJJTrWuw3IwSOiVl-JqxEH6KIqKmcuopqUFTmmJu4gsDelPYYawISl0U0PnBuKEPIp8CxdUnhwHf6drsQMCqb16M3M-5naakLwWSWndbP4XnEfqQv4uwgHKP-F259JeIKp9MAvzlUmnw1NHPLafohEapUgl8RanQXwwo3BWM5F9g_a9yNxWPQX3Af4GzJrlTUI-fd9C9A4FUViqv1bpXUgbHf5mhv-7FpaYrO6332GpYh22FjnON5FSGHiuXBygWrCP7Dz2CFaTBuadjUUpPqpyRpT2-zZzDhdcT7d0x-ED8FuHRMutyndcsNb7hGQ131hNCzTMjL6ZMRQljvuylOxX94d-cwLdSVcu61LeOHhkB3I0nSb6uPDZ_IncO9hBUHFSDVQC-V52-Q9Jty8rj0Lhj4xkCi7m6qa9ODkZyaCo6uAcTlNccuijAaFrE-mK-Q6zXHrQodGI6Nm00]--></g></svg>